<svg width="62" height="62" viewBox="0 0 62 62" fill="none" xmlns="http://www.w3.org/2000/svg">
<path d="M51.6668 33.5834C51.6668 46.5 42.6252 52.9584 31.8785 56.7042C31.3157 56.8949 30.7045 56.8858 30.1477 56.6784C19.3752 52.9584 10.3335 46.5 10.3335 33.5834V15.5C10.3335 14.8149 10.6057 14.1578 11.0901 13.6733C11.5746 13.1889 12.2317 12.9167 12.9168 12.9167C18.0835 12.9167 24.5418 9.81669 29.0368 5.89002C29.5841 5.42244 30.2803 5.16553 31.0002 5.16553C31.72 5.16553 32.4162 5.42244 32.9635 5.89002C37.4843 9.84252 43.9168 12.9167 49.0835 12.9167C49.7686 12.9167 50.4257 13.1889 50.9102 13.6733C51.3947 14.1578 51.6668 14.8149 51.6668 15.5V33.5834Z" stroke="white" stroke-width="4" stroke-linecap="round" stroke-linejoin="round"/>
<path d="M23.25 31H38.75" stroke="white" stroke-width="4" stroke-linecap="round" stroke-linejoin="round"/>
<path d="M31 23.25V38.75" stroke="white" stroke-width="4" stroke-linecap="round" stroke-linejoin="round"/>
</svg>
