<svg width="9" height="15" viewBox="0 0 9 15" fill="none" xmlns="http://www.w3.org/2000/svg">
<path d="M7.36377 6.36401C6.81148 6.36401 6.36377 6.81173 6.36377 7.36401C6.36377 7.9163 6.81148 8.36401 7.36377 8.36401L7.36377 7.36401L7.36377 6.36401ZM8.07098 8.07112C8.4615 7.6806 8.4615 7.04743 8.07098 6.65691L1.70701 0.292946C1.31649 -0.097578 0.683326 -0.0975779 0.292801 0.292946C-0.0977231 0.683471 -0.0977231 1.31664 0.292801 1.70716L5.94966 7.36401L0.292802 13.0209C-0.097722 13.4114 -0.0977219 14.0446 0.292802 14.4351C0.683327 14.8256 1.31649 14.8256 1.70702 14.4351L8.07098 8.07112ZM7.36377 7.36401L7.36377 8.36401L7.36387 8.36401L7.36387 7.36401L7.36387 6.36401L7.36377 6.36401L7.36377 7.36401Z" fill="white"/>
</svg>
