<svg width="57" height="56" viewBox="0 0 57 56" fill="none" xmlns="http://www.w3.org/2000/svg">
<path d="M53.6667 27.8333C53.6667 13.5656 42.1011 2 27.8333 2C13.5656 2 2 13.5656 2 27.8333C2 42.1011 13.5656 53.6667 27.8333 53.6667" stroke="white" stroke-width="4" stroke-linecap="round" stroke-linejoin="round"/>
<path d="M30.4166 2.12915C30.4166 2.12915 38.1666 12.3333 38.1666 27.8333M25.2499 53.5375C25.2499 53.5375 17.4999 43.3333 17.4999 27.8333C17.4999 12.3333 25.2499 2.12915 25.2499 2.12915M3.62744 36.875H27.8333M3.62744 18.7916H52.0391" stroke="white" stroke-width="4" stroke-linecap="round" stroke-linejoin="round"/>
<path d="M53.3543 43.119C54.6304 43.9043 54.5503 45.8134 53.238 45.9632L46.6066 46.715L43.6332 52.6876C43.0442 53.8734 41.2229 53.2921 40.9207 51.8248L37.6786 36.0251C37.4228 34.7851 38.5388 34.005 39.6161 34.6689L53.3543 43.119Z" stroke="white" stroke-width="4"/>
</svg>
