<svg width="51" height="56" viewBox="0 0 51 56" fill="none" xmlns="http://www.w3.org/2000/svg">
<path d="M25.25 14.9167V30.4167" stroke="white" stroke-width="4" stroke-linecap="round"/>
<path d="M25.2498 40.75C26.6766 40.75 27.8332 39.5934 27.8332 38.1666C27.8332 36.7399 26.6766 35.5833 25.2498 35.5833C23.8231 35.5833 22.6665 36.7399 22.6665 38.1666C22.6665 39.5934 23.8231 40.75 25.2498 40.75Z" fill="white"/>
<path d="M14.5111 6.65517C19.7527 3.55258 22.3722 2 25.25 2C28.1278 2 30.7473 3.55 35.9889 6.65517L37.7611 7.704C43.0027 10.8092 45.6222 12.3617 47.0611 14.9167C48.5 17.4742 48.5 20.5742 48.5 26.7845V28.8822C48.5 35.0899 48.5 38.1951 47.0611 40.75C45.6222 43.3049 43.0027 44.8575 37.7611 47.9601L35.9889 49.0115C30.7473 52.1141 28.1278 53.6667 25.25 53.6667C22.3722 53.6667 19.7527 52.1167 14.5111 49.0115L12.7389 47.9601C7.49733 44.8601 4.87783 43.3049 3.43892 40.75C2 38.1925 2 35.0925 2 28.8822V26.7845C2 20.5742 2 17.4716 3.43892 14.9167C4.87783 12.3617 7.49733 10.8092 12.7389 7.704L14.5111 6.65517Z" stroke="white" stroke-width="4"/>
</svg>
