<svg width="37" height="50" viewBox="0 0 37 50" fill="none" xmlns="http://www.w3.org/2000/svg">
<path d="M36.1667 18.0833C36.1667 14.9724 34.3046 12.3048 31.6482 11.0662C31.2666 10.8883 31 10.5179 31 10.0969V0.999999C31 0.447715 30.5523 0 30 0H26.8333C26.281 0 25.8333 0.447715 25.8333 1V10.0969C25.8333 10.5179 25.5667 10.8883 25.1851 11.0662C22.5288 12.3048 20.6667 14.9724 20.6667 18.0833C20.6667 21.1943 22.5288 23.8619 25.1851 25.1005C25.5667 25.2784 25.8333 25.6488 25.8333 26.0698V33.5833C25.8333 39.2925 21.2092 43.9167 15.5 43.9167C9.79083 43.9167 5.16667 39.2925 5.16667 33.5833V32C5.16667 31.4477 5.61438 31 6.16667 31H10.5025C11.3934 31 11.8395 29.9229 11.2096 29.2929L1.70711 19.7904C1.07714 19.1605 0 19.6066 0 20.4975V33.5833C0 42.1342 6.94917 49.0833 15.5 49.0833C24.0508 49.0833 31 42.1342 31 33.5833V26.0698C31 25.6488 31.2666 25.2784 31.6482 25.1005C34.3046 23.8619 36.1667 21.1943 36.1667 18.0833ZM28.4167 20.6667C26.9958 20.6667 25.8333 19.5042 25.8333 18.0833C25.8333 16.6625 26.9958 15.5 28.4167 15.5C29.8375 15.5 31 16.6625 31 18.0833C31 19.5042 29.8375 20.6667 28.4167 20.6667Z" fill="white"/>
</svg>
