<svg width="62" height="62" viewBox="0 0 62 62" fill="none" xmlns="http://www.w3.org/2000/svg">
<path d="M6.68034 44.9862C5.71133 45.9549 5.1668 47.2688 5.1665 48.639V54.25C5.1665 54.9351 5.43868 55.5922 5.92314 56.0767C6.40761 56.5612 7.06469 56.8333 7.74984 56.8333H15.4998C16.185 56.8333 16.8421 56.5612 17.3265 56.0767C17.811 55.5922 18.0832 54.9351 18.0832 54.25V51.6667C18.0832 50.9815 18.3553 50.3244 18.8398 49.84C19.3243 49.3555 19.9814 49.0833 20.6665 49.0833H23.2498C23.935 49.0833 24.5921 48.8112 25.0765 48.3267C25.561 47.8422 25.8332 47.1851 25.8332 46.5V43.9167C25.8332 43.2315 26.1053 42.5744 26.5898 42.09C27.0743 41.6055 27.7314 41.3333 28.4165 41.3333H28.8608C30.231 41.333 31.545 40.7885 32.5137 39.8195L34.6165 37.7167C38.2069 38.9674 42.1155 38.9626 45.7028 37.7031C49.2902 36.4436 52.3439 34.004 54.3644 30.7833C56.385 27.5627 57.2527 23.7516 56.8257 19.9737C56.3987 16.1957 54.7022 12.6745 52.0138 9.98606C49.3254 7.29763 45.8041 5.60115 42.0262 5.17414C38.2482 4.74713 34.4372 5.61487 31.2165 7.63541C27.9958 9.65596 25.5562 12.7097 24.2967 16.297C23.0372 19.8844 23.0325 23.7929 24.2832 27.3833L6.68034 44.9862Z" stroke="white" stroke-width="4" stroke-linecap="round" stroke-linejoin="round"/>
<path d="M42.6252 20.6667C43.3385 20.6667 43.9168 20.0884 43.9168 19.375C43.9168 18.6617 43.3385 18.0834 42.6252 18.0834C41.9118 18.0834 41.3335 18.6617 41.3335 19.375C41.3335 20.0884 41.9118 20.6667 42.6252 20.6667Z" fill="white" stroke="white" stroke-width="4" stroke-linecap="round" stroke-linejoin="round"/>
</svg>
