<svg width="57" height="57" viewBox="0 0 57 57" fill="none" xmlns="http://www.w3.org/2000/svg">
<path d="M29.1742 45.1755C29.2549 44.6247 29.7698 44.2459 30.3196 44.3327L30.5479 44.3687L32.4854 44.6271L33.42 44.7517C33.972 44.8253 34.3575 45.3356 34.2774 45.8867L33.325 52.4417C33.1097 53.8625 32.4312 55.0035 31.2893 55.8646C30.1475 56.7257 28.867 57.0486 27.4479 56.8333L4.45625 53.4104C3.03542 53.1951 1.89444 52.5166 1.03333 51.3747C0.172222 50.2329 -0.150694 48.9524 0.0645833 47.5333L6.13542 6.65208C6.35069 5.23125 7.02925 4.10147 8.17108 3.26275C9.31292 2.42403 10.5934 2.11144 12.0125 2.325L15.4102 2.82466C15.9584 2.90528 16.3365 3.41629 16.2534 3.96412L16.0167 5.52317L15.7787 7.08901C15.696 7.63317 15.1891 8.0082 14.6446 7.92812L12.227 7.5726C11.6805 7.49223 11.1724 7.87013 11.0921 8.4166L5.37673 47.3181C5.2964 47.8649 5.67477 48.3731 6.22158 48.453L27.2339 51.5222C27.7802 51.602 28.2878 51.224 28.3678 50.6777L29.1742 45.1755ZM53.8625 24.5417L39.2021 39.2021C38.7285 39.6757 38.1369 39.9125 37.4273 39.9125C36.7178 39.9125 36.1038 39.6542 35.5854 39.1375C35.0687 38.6639 34.8104 38.0723 34.8104 37.3627C34.8104 36.6532 35.0687 36.0392 35.5854 35.5208L50.1812 20.925C50.6979 20.4083 51.0854 19.8383 51.3437 19.2148C51.6021 18.5914 51.7312 17.9344 51.7312 17.2437C51.7312 16.5979 51.6021 15.9521 51.3437 15.3062C51.0854 14.6604 50.6979 14.0792 50.1812 13.5625L42.1429 5.52414C41.9553 5.33661 41.701 5.23125 41.4358 5.23125H35.2127C34.1787 5.23125 33.8246 6.60861 34.7304 7.10726L35.9049 7.75389C36.4882 8.07508 36.6006 8.86609 36.1297 9.337L20.925 24.5417C20.4514 25.0583 19.8598 25.3167 19.1502 25.3167C18.4407 25.3167 17.8267 25.0583 17.3083 24.5417C16.8347 24.0681 16.5979 23.4653 16.5979 22.7333C16.5979 22.0014 16.8347 21.3986 17.3083 20.925L27.6743 10.559C28.1437 10.0896 28.0339 9.30158 27.4541 8.97841L24.6708 7.42708C23.8528 6.95347 23.2069 6.31883 22.7333 5.52317C22.2597 4.7275 22.0229 3.85519 22.0229 2.90625V1C22.0229 0.447715 22.4706 0 23.0229 0H40.7521C41.7854 0 42.7757 0.204945 43.7229 0.614833C44.6701 1.02472 45.5097 1.59478 46.2417 2.325L53.8625 9.94583C54.8528 10.9361 55.5959 12.0667 56.0919 13.3377C56.5879 14.6087 56.835 15.9107 56.8333 17.2437C56.8764 18.5785 56.6396 19.8813 56.1229 21.1523C55.6062 22.4233 54.8528 23.5531 53.8625 24.5417ZM34.8675 20.1551C35.2633 20.5439 35.2669 21.1805 34.8756 21.5738L22.7979 33.7125C22.2812 34.1861 21.6681 34.4229 20.9586 34.4229C20.249 34.4229 19.6351 34.1646 19.1167 33.6479C18.6 33.1743 18.3417 32.5827 18.3417 31.8732C18.3417 31.1636 18.6 30.5496 19.1167 30.0312L31.2033 17.9446C31.5914 17.5565 32.2197 17.5538 32.6112 17.9384L34.8675 20.1551ZM40.3679 25.6429C40.7584 26.0334 40.7584 26.6666 40.3679 27.0571L30.0958 37.3292C29.5792 37.8458 28.9661 38.1042 28.2565 38.1042C27.5469 38.1042 26.933 37.8458 26.4146 37.3292C25.941 36.8125 25.7042 36.1994 25.7042 35.4898C25.7042 34.7803 25.941 34.1663 26.4146 33.6479L36.6866 23.3759C37.0772 22.9853 37.7103 22.9853 38.1008 23.3759L40.3679 25.6429ZM43.5258 56.1322C43.1348 56.5199 42.504 56.5186 42.1146 56.1292L40.8103 54.8249C40.421 54.4356 40.4197 53.8047 40.8073 53.4137L45.9728 48.2041C46.5987 47.5729 46.1516 46.5 45.2627 46.5H42.3979C41.8456 46.5 41.3979 46.0523 41.3979 45.5V43.625C41.3979 43.0727 41.8456 42.625 42.3979 42.625H53.3146C53.8669 42.625 54.3146 43.0727 54.3146 43.625V54.5417C54.3146 55.0939 53.8669 55.5417 53.3146 55.5417H51.4396C50.8873 55.5417 50.4396 55.0939 50.4396 54.5417V51.6768C50.4396 50.788 49.3667 50.3409 48.7355 50.9667L43.5258 56.1322Z" fill="white"/>
</svg>
