<svg width="60" height="60" viewBox="0 0 60 60" fill="none" xmlns="http://www.w3.org/2000/svg">
<path d="M14.7747 53.0989H6.25824C5.12889 53.0989 4.04579 52.6503 3.24721 51.8517C2.44863 51.0531 2 49.97 2 48.8407V6.25824C2 5.12889 2.44863 4.04579 3.24721 3.24721C4.04579 2.44863 5.12889 2 6.25824 2H53.0989C54.2283 2 55.3114 2.44863 56.1099 3.24721C56.9085 4.04579 57.3571 5.12889 57.3571 6.25824V16.9038M2 14.7747H57.3571M25.4203 27.5494L30.956 33.0852M25.4203 57.3571L30.956 51.8214M29.6786 42.4533H23.2912M55.228 27.5494L49.6923 33.0852M55.228 57.3571L49.6923 51.8214" stroke="white" stroke-width="4" stroke-linecap="round" stroke-linejoin="round"/>
<path d="M50.9699 42.4533H57.3573M29.6787 40.3242H50.9699M29.6787 38.195C29.6787 35.3717 30.8003 32.6639 32.7967 30.6675C34.7932 28.671 37.5009 27.5494 40.3243 27.5494C43.1477 27.5494 45.8555 28.671 47.8519 30.6675C49.8483 32.6639 50.9699 35.3717 50.9699 38.195V46.7115C50.9699 49.5349 49.8483 52.2427 47.8519 54.2391C45.8555 56.2355 43.1477 57.3571 40.3243 57.3571C37.5009 57.3571 34.7932 56.2355 32.7967 54.2391C30.8003 52.2427 29.6787 49.5349 29.6787 46.7115V38.195Z" stroke="white" stroke-width="4" stroke-linecap="round" stroke-linejoin="round"/>
</svg>
